{
  "accessors": [
    {
      "bufferView": 2,
      "componentType": 5126,
      "count": 65532,
      "max": [
        19.181758880615234,
        -0.0004052065487485379,
        10.316121101379395
      ],
      "min": [
        -20.329557418823242,
        -19.84124183654785,
        -9.069917678833008
      ],
      "type": "VEC3"
    },
    {
      "bufferView": 2,
      "byteOffset": 786384,
      "componentType": 5126,
      "count": 65532,
      "max": [
        0.9999978542327881,
        0.9997647404670715,
        0.9999880194664001
      ],
      "min": [
        -0.9999982714653015,
        -0.9999997615814209,
        -0.9999769926071167
      ],
      "type": "VEC3"
    },
    {
      "bufferView": 3,
      "componentType": 5126,
      "count": 65532,
      "max": [
        0.9999986290931702,
        0.9999991059303284,
        0.9998186826705933,
        -1.0
      ],
      "min": [
        -0.9999995827674866,
        -0.9999969005584717,
        -0.9995925426483154,
        -1.0
      ],
      "type": "VEC4"
    },
    {
      "bufferView": 1,
      "componentType": 5126,
      "count": 65532,
      "max": [
        0.9997310042381287,
        0.9968259930610657
      ],
      "min": [
        0.00024399999529123306,
        0.00024500000290572643
      ],
      "type": "VEC2"
    },
    {
      "bufferView": 0,
      "componentType": 5125,
      "count": 274542,
      "type": "SCALAR"
    },
    {
      "bufferView": 2,
      "byteOffset": 1572768,
      "componentType": 5126,
      "count": 65532,
      "max": [
        19.112350463867188,
        -0.00040520066977478564,
        10.310408592224121
      ],
      "min": [
        -20.317909240722656,
        -20.600543975830078,
        -9.067754745483398
      ],
      "type": "VEC3"
    },
    {
      "bufferView": 2,
      "byteOffset": 2359152,
      "componentType": 5126,
      "count": 65532,
      "max": [
        0.9999709725379944,
        0.9999591708183289,
        0.9999968409538269
      ],
      "min": [
        -0.9999990463256836,
        -0.9999964237213135,
        -0.9999884963035583
      ],
      "type": "VEC3"
    },
    {
      "bufferView": 3,
      "byteOffset": 1048512,
      "componentType": 5126,
      "count": 65532,
      "max": [
        0.9999997019767761,
        0.9999963045120239,
        0.9996338486671448,
        -1.0
      ],
      "min": [
        -0.9999992251396179,
        -0.9999993443489075,
        -0.9999581575393677,
        -1.0
      ],
      "type": "VEC4"
    },
    {
      "bufferView": 1,
      "byteOffset": 524256,
      "componentType": 5126,
      "count": 65532,
      "max": [
        0.9996790289878845,
        0.9948729872703552
      ],
      "min": [
        0.00024399999529123306,
        0.00025099999038502574
      ],
      "type": "VEC2"
    },
    {
      "bufferView": 0,
      "byteOffset": 1098168,
      "componentType": 5125,
      "count": 239331,
      "type": "SCALAR"
    },
    {
      "bufferView": 2,
      "byteOffset": 3145536,
      "componentType": 5126,
      "count": 65532,
      "max": [
        19.181758880615234,
        -0.00040520066977478564,
        10.3004150390625
      ],
      "min": [
        -20.28188133239746,
        -20.457839965820313,
        -9.049849510192871
      ],
      "type": "VEC3"
    },
    {
      "bufferView": 2,
      "byteOffset": 3931920,
      "componentType": 5126,
      "count": 65532,
      "max": [
        0.9999301433563232,
        0.9999988079071045,
        0.9999525547027588
      ],
      "min": [
        -0.9999710321426392,
        -0.9999997615814209,
        -0.9999670386314392
      ],
      "type": "VEC3"
    },
    {
      "bufferView": 3,
      "byteOffset": 2097024,
      "componentType": 5126,
      "count": 65532,
      "max": [
        0.9999982118606567,
        0.9999992251396179,
        0.9992661476135254,
        -1.0
      ],
      "min": [
        -0.9999943375587463,
        -0.9999989867210388,
        -0.9999897480010986,
        -1.0
      ],
      "type": "VEC4"
    },
    {
      "bufferView": 1,
      "byteOffset": 1048512,
      "componentType": 5126,
      "count": 65532,
      "max": [
        0.9997389912605286,
        0.9978029727935791
      ],
      "min": [
        0.00024399999529123306,
        0.0002460000105202198
      ],
      "type": "VEC2"
    },
    {
      "bufferView": 0,
      "byteOffset": 2055492,
      "componentType": 5125,
      "count": 198105,
      "type": "SCALAR"
    },
    {
      "bufferView": 2,
      "byteOffset": 4718304,
      "componentType": 5126,
      "count": 65532,
      "max": [
        19.154932022094727,
        -0.0004052390868309885,
        10.305254936218262
      ],
      "min": [
        -20.310876846313477,
        -20.639183044433594,
        -9.049120903015137
      ],
      "type": "VEC3"
    },
    {
      "bufferView": 2,
      "byteOffset": 5504688,
      "componentType": 5126,
      "count": 65532,
      "max": [
        0.999998152256012,
        0.9999635219573975,
        0.9999884963035583
      ],
      "min": [
        -0.9999768733978271,
        -0.9999952912330627,
        -0.9999657273292542
      ],
      "type": "VEC3"
    },
    {
      "bufferView": 3,
      "byteOffset": 3145536,
      "componentType": 5126,
      "count": 65532,
      "max": [
        0.9999973773956299,
        0.999987781047821,
        0.9997848272323608,
        1.0
      ],
      "min": [
        -1.0,
        -0.9999991059303284,
        -0.9999714493751526,
        -1.0
      ],
      "type": "VEC4"
    },
    {
      "bufferView": 1,
      "byteOffset": 1572768,
      "componentType": 5126,
      "count": 65532,
      "max": [
        0.9997550249099731,
        0.9884700179100037
      ],
      "min": [
        0.00024399999529123306,
        0.0002460000105202198
      ],
      "type": "VEC2"
    },
    {
      "bufferView": 0,
      "byteOffset": 2847912,
      "componentType": 5125,
      "count": 158787,
      "type": "SCALAR"
    },
    {
      "bufferView": 2,
      "byteOffset": 6291072,
      "componentType": 5126,
      "count": 25766,
      "max": [
        19.115102767944336,
        -0.0004055352765135467,
        10.297785758972168
      ],
      "min": [
        -20.271997451782227,
        -20.32550811767578,
        -8.905010223388672
      ],
      "type": "VEC3"
    },
    {
      "bufferView": 2,
      "byteOffset": 6600264,
      "componentType": 5126,
      "count": 25766,
      "max": [
        0.9999136924743652,
        0.9996141195297241,
        0.9999968409538269
      ],
      "min": [
        -0.9997012615203857,
        -0.9999626874923706,
        -0.9999670386314392
      ],
      "type": "VEC3"
    },
    {
      "bufferView": 3,
      "byteOffset": 4194048,
      "componentType": 5126,
      "count": 25766,
      "max": [
        0.9999833106994629,
        0.9999899864196777,
        0.999985933303833,
        1.0
      ],
      "min": [
        -0.9999933838844299,
        -0.9999728202819824,
        -0.9996485710144043,
        -1.0
      ],
      "type": "VEC4"
    },
    {
      "bufferView": 1,
      "byteOffset": 2097024,
      "componentType": 5126,
      "count": 25766,
      "max": [
        0.9997320175170898,
        0.9903380274772644
      ],
      "min": [
        0.00024399999529123306,
        0.00024399999529123306
      ],
      "type": "VEC2"
    },
    {
      "bufferView": 0,
      "byteOffset": 3483060,
      "componentType": 5125,
      "count": 30699,
      "type": "SCALAR"
    }
  ],
  "asset": {
    "extras": {
      "author": "Rigsters (https://sketchfab.com/rigsters)",
      "license": "CC-BY-4.0 (http://creativecommons.org/licenses/by/4.0/)",
      "source": "https://sketchfab.com/3d-models/nile-42e02439c61049d681c897441d40aaa1",
      "title": "Nile"
    },
    "generator": "Sketchfab-12.68.0",
    "version": "2.0"
  },
  "bufferViews": [
    {
      "buffer": 0,
      "byteLength": 3605856,
      "name": "floatBufferViews",
      "target": 34963
    },
    {
      "buffer": 0,
      "byteLength": 2303152,
      "byteOffset": 3605856,
      "byteStride": 8,
      "name": "floatBufferViews",
      "target": 34962
    },
    {
      "buffer": 0,
      "byteLength": 6909456,
      "byteOffset": 5909008,
      "byteStride": 12,
      "name": "floatBufferViews",
      "target": 34962
    },
    {
      "buffer": 0,
      "byteLength": 4606304,
      "byteOffset": 12818464,
      "byteStride": 16,
      "name": "floatBufferViews",
      "target": 34962
    }
  ],
  "buffers": [
    {
      "byteLength": 17424768,
      "uri": "scene.bin"
    }
  ],
  "images": [
    {
      "uri": "textures/roman_statue_low-300k-tex_baseColor.png"
    },
    {
      "uri": "textures/roman_statue_low-300k-tex_metallicRoughness.png"
    },
    {
      "uri": "textures/roman_statue_low-300k-tex_normal.png"
    }
  ],
  "materials": [
    {
      "doubleSided": true,
      "name": "roman_statue_low-300k-tex",
      "normalTexture": {
        "index": 2
      },
      "occlusionTexture": {
        "index": 1
      },
      "pbrMetallicRoughness": {
        "baseColorTexture": {
          "index": 0
        },
        "metallicRoughnessTexture": {
          "index": 1
        }
      }
    }
  ],
  "meshes": [
    {
      "name": "Object_0",
      "primitives": [
        {
          "attributes": {
            "NORMAL": 1,
            "POSITION": 0,
            "TANGENT": 2,
            "TEXCOORD_0": 3
          },
          "indices": 4,
          "material": 0,
          "mode": 4
        }
      ]
    },
    {
      "name": "Object_1",
      "primitives": [
        {
          "attributes": {
            "NORMAL": 6,
            "POSITION": 5,
            "TANGENT": 7,
            "TEXCOORD_0": 8
          },
          "indices": 9,
          "material": 0,
          "mode": 4
        }
      ]
    },
    {
      "name": "Object_2",
      "primitives": [
        {
          "attributes": {
            "NORMAL": 11,
            "POSITION": 10,
            "TANGENT": 12,
            "TEXCOORD_0": 13
          },
          "indices": 14,
          "material": 0,
          "mode": 4
        }
      ]
    },
    {
      "name": "Object_3",
      "primitives": [
        {
          "attributes": {
            "NORMAL": 16,
            "POSITION": 15,
            "TANGENT": 17,
            "TEXCOORD_0": 18
          },
          "indices": 19,
          "material": 0,
          "mode": 4
        }
      ]
    },
    {
      "name": "Object_4",
      "primitives": [
        {
          "attributes": {
            "NORMAL": 21,
            "POSITION": 20,
            "TANGENT": 22,
            "TEXCOORD_0": 23
          },
          "indices": 24,
          "material": 0,
          "mode": 4
        }
      ]
    }
  ],
  "nodes": [
    {
      "children": [
        1
      ],
      "matrix": [
        -0.09994091838598251,
        2.2191341738860288e-17,
        -1.6071725181567048e-17,
        0.0,
        -2.2191341738860285e-17,
        -0.09994091838598251,
        0.0,
        0.0,
        -1.6071725181567054e-17,
        0.0,
        0.09994091838598251,
        0.0,
        -1.1477680206298828,
        -9.696707725524904,
        9.6967077255249,
        1.0
      ],
      "name": "Sketchfab_model"
    },
    {
      "children": [
        2,
        3,
        4,
        5,
        6
      ],
      "name": "nile.obj.cleaner.materialmerger.gles"
    },
    {
      "mesh": 0,
      "name": "Object_2"
    },
    {
      "mesh": 1,
      "name": "Object_3"
    },
    {
      "mesh": 2,
      "name": "Object_4"
    },
    {
      "mesh": 3,
      "name": "Object_5"
    },
    {
      "mesh": 4,
      "name": "Object_6"
    }
  ],
  "samplers": [
    {
      "magFilter": 9729,
      "minFilter": 9987,
      "wrapS": 10497,
      "wrapT": 10497
    }
  ],
  "scene": 0,
  "scenes": [
    {
      "name": "Sketchfab_Scene",
      "nodes": [
        0
      ]
    }
  ],
  "textures": [
    {
      "sampler": 0,
      "source": 0
    },
    {
      "sampler": 0,
      "source": 1
    },
    {
      "sampler": 0,
      "source": 2
    }
  ]
}
